<?xml version="1.0" encoding="UTF-8" standalone="no"?> <svg width="64" height="64" viewBox="0 0 64 64" fill="none" xmlns="http://www.w3.org/2000/svg">
<path d="M16.41 57.28C16.3607 56.8707 16.2189 56.4779 15.9954 56.1314C15.7719 55.7849 15.4726 55.4938 15.12 55.28C14.9897 55.2002 14.8819 55.0886 14.8067 54.9556C14.7315 54.8227 14.6913 54.6728 14.69 54.52V41.37C14.69 41.1048 14.5847 40.8504 14.3971 40.6629C14.2096 40.4754 13.9552 40.37 13.69 40.37C13.4248 40.37 13.1705 40.4754 12.9829 40.6629C12.7954 40.8504 12.69 41.1048 12.69 41.37H10.28C10.28 41.1048 10.1747 40.8504 9.98714 40.6629C9.7996 40.4754 9.54525 40.37 9.28003 40.37C9.01481 40.37 8.76046 40.4754 8.57292 40.6629C8.38539 40.8504 8.28003 41.1048 8.28003 41.37V57.7C8.28267 58.5744 8.63119 59.4122 9.24949 60.0305C9.86779 60.6488 10.7056 60.9974 11.58 61C11.8019 61.0011 12.0233 60.9777 12.24 60.93L13.73 60.63C14.5004 60.4832 15.2023 60.0901 15.73 59.51C15.9992 59.2104 16.1996 58.8556 16.317 58.4703C16.4345 58.0851 16.4663 57.6788 16.41 57.28V57.28Z" fill="#303D3B"/>
<path d="M48.9201 19.77H46.8701C46.6015 19.7702 46.3355 19.7162 46.0882 19.6114C45.8409 19.5065 45.6172 19.3529 45.4305 19.1597C45.2439 18.9665 45.0981 18.7377 45.0018 18.4869C44.9055 18.2361 44.8607 17.9685 44.8701 17.7C44.8785 17.4078 44.9468 17.1203 45.0706 16.8555C45.1944 16.5906 45.3712 16.3539 45.5901 16.16C46.3682 15.4118 46.9791 14.5075 47.3827 13.5063C47.7863 12.5052 47.9735 11.43 47.9319 10.3513C47.8904 9.2727 47.621 8.21507 47.1416 7.24796C46.6621 6.28085 45.9834 5.42615 45.1501 4.74004C44.2654 4.01801 43.2318 3.50095 42.1234 3.22603C41.0151 2.95111 39.8597 2.92516 38.7401 3.15004C37.2349 3.45082 35.8561 4.20031 34.7851 5.29986C33.7141 6.3994 33.0012 7.79747 32.7401 9.31004C32.5208 10.5685 32.618 11.8617 33.023 13.0732C33.428 14.2848 34.1281 15.3765 35.0601 16.25C35.2535 16.4128 35.4104 16.6145 35.5207 16.8419C35.6309 17.0693 35.6921 17.3174 35.7001 17.57C35.6975 18.1544 35.4634 18.714 35.0493 19.1263C34.6351 19.5386 34.0745 19.77 33.4901 19.77H31.6601C29.457 19.7727 27.3448 20.6491 25.787 22.2069C24.2291 23.7648 23.3527 25.8769 23.3501 28.08V56.7C23.3527 57.8397 23.8066 58.9318 24.6125 59.7377C25.4183 60.5435 26.5105 60.9974 27.6501 61H52.9301C54.0697 60.9974 55.1619 60.5435 55.9677 59.7377C56.7736 58.9318 57.2275 57.8397 57.2301 56.7V28.08C57.2274 25.8769 56.3511 23.7648 54.7932 22.2069C53.2354 20.6491 51.1232 19.7727 48.9201 19.77V19.77ZM40.2901 13.88C39.6137 13.88 38.9525 13.6795 38.39 13.3037C37.8276 12.9279 37.3893 12.3937 37.1304 11.7688C36.8716 11.1439 36.8039 10.4562 36.9358 9.79283C37.0678 9.12942 37.3935 8.52003 37.8718 8.04174C38.3501 7.56344 38.9595 7.23772 39.6229 7.10575C40.2863 6.97379 40.974 7.04152 41.5989 7.30037C42.2238 7.55922 42.7579 7.99757 43.1337 8.55999C43.5095 9.12241 43.7101 9.78363 43.7101 10.46C43.7101 10.9092 43.6216 11.3539 43.4498 11.7688C43.2779 12.1838 43.026 12.5608 42.7084 12.8783C42.3908 13.1959 42.0138 13.4478 41.5989 13.6197C41.1839 13.7916 40.7392 13.88 40.2901 13.88V13.88Z" fill="#F9AB85"/>
<path d="M14.34 7.65999C14.2815 7.5211 14.1923 7.39725 14.0791 7.29768C13.966 7.19812 13.8317 7.12543 13.6865 7.08504C13.5413 7.04464 13.3889 7.0376 13.2405 7.06444C13.0922 7.09127 12.9519 7.15128 12.83 7.23999C11.0158 8.4879 9.52152 10.1462 8.46857 12.0801C7.41561 14.0139 6.83367 16.1689 6.77002 18.37V41.37C6.77002 41.6352 6.87538 41.8896 7.06291 42.0771C7.25045 42.2646 7.5048 42.37 7.77002 42.37H17.34C17.5904 42.371 17.832 42.2781 18.0171 42.1096C18.2023 41.9411 18.3175 41.7093 18.34 41.46L18.83 35.8C19.6352 26.1948 18.0943 16.5377 14.34 7.65999V7.65999Z" fill="#CAD1D3"/>
</svg>
